<svg width="28" height="25" viewBox="0 0 28 25" fill="none" xmlns="http://www.w3.org/2000/svg">
<path d="M17.9201 2.2401L27.3015 17.7416C28.6497 19.968 27.9875 22.8972 25.8217 24.2833C25.0952 24.7512 24.2476 25.0001 23.3815 25H4.61721C2.06781 25 0 22.875 0 20.2514C0 19.3638 0.242201 18.4958 0.697202 17.7416L10.08 2.2401C11.4268 0.0136923 14.2744 -0.668258 16.4402 0.717864C17.0394 1.1012 17.5463 1.62204 17.9201 2.2401ZM14 19.4444C14.3713 19.4444 14.7274 19.2981 14.99 19.0376C15.2525 18.7771 15.4 18.4239 15.4 18.0555C15.4 17.6871 15.2525 17.3339 14.99 17.0734C14.7274 16.8129 14.3713 16.6666 14 16.6666C13.6287 16.6666 13.2726 16.8129 13.0101 17.0734C12.7475 17.3339 12.6 17.6871 12.6 18.0555C12.6 18.4239 12.7475 18.7771 13.0101 19.0376C13.2726 19.2981 13.6287 19.4444 14 19.4444ZM14 6.9443C13.6287 6.9443 13.2726 7.09063 13.0101 7.3511C12.7475 7.61157 12.6 7.96484 12.6 8.3332V13.8888C12.6 14.2572 12.7475 14.6104 13.0101 14.8709C13.2726 15.1314 13.6287 15.2777 14 15.2777C14.3713 15.2777 14.7274 15.1314 14.99 14.8709C15.2525 14.6104 15.4 14.2572 15.4 13.8888V8.3332C15.4 7.96484 15.2525 7.61157 14.99 7.3511C14.7274 7.09063 14.3713 6.9443 14 6.9443Z" fill="black"/>
</svg>
