<svg width="53" height="116" viewBox="0 0 53 116" fill="none" xmlns="http://www.w3.org/2000/svg">
<path d="M18.7686 58.7028C21.5377 59.817 24.6954 58.5005 25.8469 55.7375C27.0021 52.9648 25.7009 49.783 22.9403 48.6109L22.9395 48.6103L22.9334 48.6072L22.9264 48.6036C22.921 48.6012 22.9014 48.5933 22.8687 48.5787L22.547 48.4288C22.2486 48.2845 21.8028 48.0566 21.2725 47.7497C20.1854 47.1206 18.878 46.2343 17.7597 45.1456C16.6281 44.0441 15.9133 42.9531 15.6109 41.9319C15.3507 41.0528 15.2807 39.8741 16.0838 38.1575C16.9387 36.3304 18.8643 34.0529 21.8308 31.5253C24.7106 29.0715 28.1799 26.7075 31.6072 24.6196C35.0172 22.5422 38.2826 20.7995 40.701 19.5746C41.9068 18.9639 42.8942 18.4861 43.574 18.1635C43.9137 18.0023 44.1763 17.8805 44.3499 17.8004C44.4351 17.7611 44.499 17.7321 44.5425 17.7123C44.5557 17.7063 44.5668 17.7005 44.5749 17.6968C44.5768 17.6959 44.5787 17.6951 44.5801 17.6945L44.5795 17.6953L44.5905 17.6898L44.5943 17.6877L44.8476 17.5658C47.4185 16.2484 48.5322 13.1316 47.3339 10.4672C46.1033 7.73157 42.8991 6.50397 40.1582 7.70774C40.1498 7.71108 40.1428 7.71364 40.1385 7.71543C40.1354 7.71678 40.1324 7.71854 40.1295 7.71983C40.124 7.72228 40.118 7.72458 40.1125 7.72704L40.1035 7.73144L40.1021 7.73169M18.7686 58.7028C18.7763 58.7056 18.7832 58.7075 18.7879 58.7092C18.7926 58.7108 18.7965 58.7123 18.7984 58.7129L18.7992 58.7135C18.798 58.7131 18.7945 58.7123 18.7903 58.7108C18.7877 58.7099 18.784 58.7085 18.7798 58.7071C18.7768 58.706 18.7729 58.7043 18.7686 58.7028C18.7462 58.6948 18.7286 58.6883 18.7167 58.6832C18.7148 58.6824 18.7121 58.6815 18.7092 58.6803C18.7078 58.6798 18.7063 58.679 18.7046 58.6783L17.3198 58.1008L17.3455 58.0402C16.9088 57.8193 16.3839 57.5407 15.8012 57.2034C14.2331 56.2958 12.113 54.8923 10.1407 52.9724C8.18204 51.0658 6.14246 48.428 5.1372 45.0326C4.08991 41.4949 4.29944 37.5697 6.19071 33.5277C8.03051 29.5958 11.3538 26.1017 14.7463 23.2111C18.2246 20.2473 22.2224 17.5472 25.9253 15.2914C29.6454 13.0251 33.1738 11.1438 35.7661 9.83084C36.988 9.21197 38.0094 8.7161 38.7536 8.36167L38.7445 8.34223L40.095 7.73505C40.0974 7.73396 40.0997 7.73279 40.1021 7.73169C40.1043 7.73072 40.1068 7.72997 40.1087 7.72912L40.1093 7.72832C40.1068 7.72941 40.1045 7.73061 40.1021 7.73169M40.1021 7.73169L40.1029 7.73224L40.1021 7.73169Z" fill="#FFDF78" stroke="black" stroke-width="3"/>
<path d="M34.2792 58.567L34.2829 58.5685C34.2864 58.5699 34.2941 58.5729 34.3033 58.5768L34.3012 58.5765L34.2998 58.5767C34.2831 58.5697 34.2687 58.5633 34.2574 58.559C34.246 58.5546 34.2357 58.5507 34.2281 58.548C34.2206 58.5453 34.2133 58.5432 34.2088 58.5416L34.208 58.5411L34.2101 58.5414C31.504 57.4658 28.4256 58.7541 27.301 61.4522C26.1698 64.1669 27.4435 67.2833 30.1463 68.4311L30.1471 68.4317L30.1525 68.4342L30.16 68.4371C30.1647 68.4391 30.1836 68.4473 30.2155 68.4616L30.5268 68.6078C30.8157 68.7476 31.2479 68.9677 31.7617 69.2651C32.8156 69.8751 34.0832 70.7333 35.166 71.7874C36.2618 72.8541 36.9511 73.9081 37.2419 74.8906C37.4916 75.734 37.5604 76.8688 36.7846 78.5269C35.9581 80.2931 34.0931 82.4999 31.2137 84.9534C28.4189 87.3347 25.051 89.629 21.7232 91.6563C18.4124 93.6732 15.2421 95.3656 12.8938 96.5549C11.723 97.1479 10.7641 97.6121 10.1041 97.9252C9.77428 98.0818 9.51935 98.2003 9.35097 98.278C9.26864 98.316 9.20708 98.3443 9.16485 98.3636C9.15189 98.3695 9.14015 98.3741 9.13229 98.3778C9.12811 98.3797 9.12549 98.3811 9.12326 98.3822L9.1227 98.383L9.1175 98.3853L9.11422 98.3866L8.86611 98.5062C6.34892 99.7961 5.25827 102.847 6.43136 105.456C7.6376 108.138 10.7813 109.34 13.4672 108.155C13.4712 108.153 13.4746 108.152 13.4771 108.151L13.5025 108.14L14.8705 107.525L14.8606 107.505C15.5804 107.162 16.5596 106.687 17.7263 106.096C20.2448 104.82 23.6729 102.992 27.2873 100.79C30.8848 98.5984 34.7696 95.9744 38.1503 93.0939C41.447 90.2848 44.681 86.8865 46.4718 83.0593C48.313 79.1241 48.5174 75.3005 47.497 71.8539C46.5177 68.5466 44.5316 65.9785 42.6259 64.1234C40.7069 62.2554 38.6441 60.8909 37.1191 60.0083C36.568 59.6893 36.0699 59.4245 35.6522 59.2125L35.6791 59.1503L34.3353 58.5908L34.3329 58.5891C34.3315 58.5885 34.3284 58.5875 34.3254 58.5862L34.3125 58.5808L34.3033 58.5768M34.2861 58.5707C34.2755 58.5664 34.2663 58.5629 34.259 58.5601C34.2494 58.5564 34.2412 58.5526 34.2349 58.5503C34.2284 58.548 34.2227 58.5463 34.2184 58.5448C34.2444 58.5538 34.265 58.5611 34.2792 58.567C34.2863 58.57 34.292 58.5721 34.2958 58.5739C34.2981 58.5748 34.3007 58.5757 34.3033 58.5768M34.2792 58.567C34.2798 58.5673 34.2824 58.5692 34.2861 58.5707M34.2861 58.5707C34.287 58.5711 34.2881 58.5712 34.2891 58.5716C34.2907 58.5722 34.2926 58.5734 34.2945 58.5741C34.2916 58.573 34.2888 58.5718 34.2861 58.5707Z" fill="#FFDF78" stroke="black" stroke-width="3"/>
<path d="M43.4303 96.386C46.8417 96.386 49.6079 99.1514 49.6081 102.563C49.6081 105.974 46.8419 108.74 43.4303 108.74C40.019 108.74 37.2536 105.974 37.2536 102.563C37.2538 99.1515 40.0191 96.3862 43.4303 96.386Z" fill="#FFDF78" stroke="black" stroke-width="3"/>
<path d="M11.3585 4.17957C14.7699 4.17957 17.536 6.94496 17.5362 10.3563C17.5362 13.7679 14.77 16.5341 11.3585 16.5341C7.94709 16.5338 5.1817 13.7677 5.1817 10.3563C5.18191 6.94509 7.94722 4.17978 11.3585 4.17957Z" fill="#FFDF78" stroke="black" stroke-width="3"/>
</svg>
