<svg width="31" height="24" viewBox="0 0 31 24" fill="none" xmlns="http://www.w3.org/2000/svg">
<path d="M2.58333 2.82919e-07C0.645833 -0.000633446 0 2.25 0 2.25C0 8.475 3.34195 13.92 8.31707 16.95V24H31V21C31 17.01 22.94 15 18.9024 15H18.5244C11.3415 15 5.29268 9 5.29268 2.25C5.29268 2.25 4.52083 0.000634012 2.58333 2.82919e-07ZM18.9024 2.82919e-07C17.2982 2.82919e-07 15.7597 0.632141 14.6253 1.75736C13.4909 2.88258 12.8537 4.4087 12.8537 6C12.8537 7.5913 13.4909 9.11742 14.6253 10.2426C15.7597 11.3679 17.2982 12 18.9024 12C20.5067 12 22.0452 11.3679 23.1796 10.2426C24.3139 9.11742 24.9512 7.5913 24.9512 6C24.9512 4.4087 24.3139 2.88258 23.1796 1.75736C22.0452 0.632141 20.5067 2.82919e-07 18.9024 2.82919e-07Z" fill="white"/>
</svg>
