<svg width="42" height="31" viewBox="0 0 42 31" fill="none" xmlns="http://www.w3.org/2000/svg">
<path d="M24.4906 16.1853C23.8778 17.2616 22.8928 18.2081 21.6429 18.9228C21.4954 19.0067 21.421 19.1775 21.4582 19.3433C21.4962 19.509 21.6372 19.631 21.8061 19.6425C22.149 19.6669 22.4969 19.6791 22.8391 19.6791C25.3453 19.6791 27.7986 19.0304 29.7472 17.8515C30.143 17.8866 30.5418 17.9038 30.9326 17.9038C36.9609 17.9038 41.8653 13.8877 41.8653 8.95156C41.8653 4.01547 36.9609 0 30.9326 0C24.9044 0 20 4.01618 20 8.95228C20 10.4053 20.4116 11.7917 21.2248 13.0725C22.0001 14.2945 23.1297 15.3709 24.4906 16.1853ZM21.5398 8.95228C21.5398 4.86721 25.7534 1.54347 30.9326 1.54347C36.1119 1.54347 40.3255 4.86721 40.3255 8.95228C40.3255 13.0374 36.1119 16.3611 30.9326 16.3611C30.5855 16.3611 30.2318 16.3453 29.8825 16.3145L29.3821 16.27L28.9519 16.5304C27.8466 17.1992 26.5494 17.6735 25.1692 17.9261C25.4162 17.614 25.6367 17.2875 25.8285 16.9502L26.5766 15.6356L25.2802 14.86C22.9035 13.4385 21.5405 11.2851 21.5405 8.95228H21.5398Z" fill="white"/>
<path fill-rule="evenodd" clip-rule="evenodd" d="M30.1836 11.4238C30.0583 11.4238 29.9545 11.3255 29.9474 11.2007C29.9359 11.0055 29.9359 10.7988 29.9359 10.6754C29.9359 9.43188 30.5451 8.79038 31.46 8.20987C32.1422 7.76283 32.4593 7.27202 32.4593 6.66496C32.4593 5.92516 31.7843 5.38842 30.8544 5.38842C29.9846 5.38842 29.3511 5.96606 29.2408 6.85942C29.233 6.92257 29.1993 6.98141 29.1485 7.01944C29.1077 7.05029 29.0569 7.06751 29.006 7.06751C28.9939 7.06751 28.9817 7.0668 28.9695 7.06464L27.5865 6.84866C27.4626 6.82928 27.3753 6.71591 27.3868 6.59105C27.4669 5.75868 27.8428 5.05117 28.4741 4.54601C29.1199 4.02865 30.0218 3.74377 31.014 3.74377C32.0062 3.74377 32.871 4.02578 33.5045 4.53811C34.1345 5.04686 34.4809 5.75079 34.4809 6.52002C34.4809 7.12061 34.3693 7.6186 34.1402 8.04196C33.9083 8.46963 33.5589 8.83199 33.0406 9.18216C32.9841 9.22019 32.9282 9.25751 32.8738 9.29339C32.2331 9.7189 31.8115 9.99875 31.8115 10.7278V10.7938C31.8115 10.8993 31.8115 11.0435 31.8151 11.1806C31.8165 11.2444 31.7922 11.3069 31.7478 11.3528C31.7034 11.3987 31.6418 11.4245 31.5781 11.4245H30.1829L30.1836 11.4238Z" fill="white"/>
<path fill-rule="evenodd" clip-rule="evenodd" d="M32.051 13.3488C32.051 13.9896 31.5327 14.5084 30.8941 14.5084C30.2556 14.5084 29.7373 13.9889 29.7373 13.3488C29.7373 12.7087 30.2556 12.1892 30.8941 12.1892C31.5327 12.1892 32.051 12.7087 32.051 13.3488Z" fill="white"/>
<path d="M16.4764 13.0641C16.7743 9.4714 14.1101 6.3169 10.5259 6.01837C6.94164 5.71984 3.79461 8.39032 3.49678 11.9831C3.19896 15.5758 5.86312 18.7303 9.44735 19.0288C13.0316 19.3274 16.1786 16.6569 16.4764 13.0641Z" fill="white"/>
<path d="M19.9704 30.2247C19.7349 24.9004 15.3545 20.6567 9.98556 20.6567C4.61659 20.6567 0.235519 24.9004 0 30.2247H19.9704Z" fill="white"/>
</svg>
